Coordinates
version=1
nRows=19
nColumns=24
inDegrees=yes

Units are S.I. units (second, meters, Newtons, ...)
Angles are in degrees.

endheader
time	pelvis_tilt	pelvis_list	pelvis_rotation	pelvis_tx	pelvis_ty	pelvis_tz	hip_flexion_r	hip_adduction_r	hip_rotation_r	knee_angle_r	ankle_angle_r	subtalar_angle_r	mtp_angle_r	hip_flexion_l	hip_adduction_l	hip_rotation_l	knee_angle_l	ankle_angle_l	subtalar_angle_l	mtp_angle_l	lumbar_extension	lumbar_bending	lumbar_rotation
      4.62000000	     -4.99153929	      2.98660152	     -5.82676462	      0.05525025	      0.96157693	     -0.01407652	     16.23335542	    -10.72607542	     -1.22658711	    -55.07587506	      1.68333440	      0.00000000	      0.00000000	      4.69006516	      2.73496900	     -9.94481655	     -2.57340591	      4.44650754	      0.00000000	      0.00000000	     -1.70361497	     -7.42960527	      1.32438990
      4.63000000	     -4.89528670	      2.93502370	     -5.97114029	      0.05408008	      0.96214165	     -0.01534800	     17.03384370	    -10.58653593	     -1.30235672	    -54.72913918	      1.78171432	      0.00000000	      0.00000000	      4.24431388	      2.82069855	     -9.96976559	     -2.74423090	      4.48866283	      0.00000000	      0.00000000	     -1.87753817	     -7.35996446	      1.09865530
      4.64000000	     -5.00592881	      2.54574181	     -6.33968172	      0.05286223	      0.96224057	     -0.01601654	     18.05490563	     -9.89450107	     -1.11165055	    -54.38518256	      2.81129199	      0.00000000	      0.00000000	      3.94498172	      2.49963645	    -10.41684315	     -2.88602558	      5.26994081	      0.00000000	      0.00000000	     -1.81161721	     -6.88974696	      1.13723699
      4.65000000	     -5.08845308	      2.29463860	     -6.64596609	      0.05155706	      0.96239608	     -0.01685023	     18.99647857	     -9.41743356	     -1.04358693	    -53.76246062	      3.39104689	      0.00000000	      0.00000000	      3.72008951	      2.32527543	    -10.79816290	     -3.20202009	      5.74174482	      0.00000000	      0.00000000	     -1.79378869	     -6.55537777	      1.06165746
      4.66000000	     -5.15463363	      2.10164133	     -6.91128910	      0.05029695	      0.96251481	     -0.01767303	     19.87878603	     -9.04026940	     -1.08464499	    -52.96644391	      3.96738943	      0.00000000	      0.00000000	      3.40035469	      2.22471742	    -11.07696090	     -3.33316764	      6.12226382	      0.00000000	      0.00000000	     -1.79155730	     -6.28383203	      0.92426484
      4.67000000	     -5.17493987	      2.02916519	     -7.15081638	      0.04907077	      0.96264803	     -0.01862540	     20.66600951	     -8.84831447	     -1.18754647	    -51.95493479	      4.37081199	      0.00000000	      0.00000000	      3.02234552	      2.27432937	    -11.26518478	     -3.40001068	      6.35480360	      0.00000000	      0.00000000	     -1.84026444	     -6.13026757	      0.73001349
      4.68000000	     -5.25245358	      1.82729046	     -7.43327284	      0.04786867	      0.96263854	     -0.01920072	     21.45184351	     -8.47127670	     -1.32573783	    -50.80131280	      5.00129995	      0.00000000	      0.00000000	      2.65375721	      2.15729197	    -11.58228774	     -3.42042541	      6.71001707	      0.00000000	      0.00000000	     -1.81209673	     -5.83856531	      0.54082599
      4.69000000	     -5.29829569	      1.76444561	     -7.69693693	      0.04660842	      0.96261151	     -0.01991794	     22.18161350	     -8.28514975	     -1.47395903	    -49.47574988	      5.35534766	      0.00000000	      0.00000000	      2.28697988	      2.20393230	    -11.76934201	     -3.46015477	      6.94562085	      0.00000000	      0.00000000	     -1.83476815	     -5.68140175	      0.32058806
      4.70000000	     -5.36974833	      1.70115728	     -7.96234055	      0.04536662	      0.96250186	     -0.02046839	     22.88322586	     -8.09845840	     -1.67204100	    -47.99308462	      5.68918721	      0.00000000	      0.00000000	      1.91820407	      2.24071373	    -11.96688417	     -3.44273585	      7.19976365	      0.00000000	      0.00000000	     -1.82299046	     -5.52575811	      0.07913617
      4.71000000	     -5.46253088	      1.62813739	     -8.22614549	      0.04413225	      0.96228996	     -0.02087649	     23.54838207	     -7.89890632	     -1.90738625	    -46.35814862	      5.96241379	      0.00000000	      0.00000000	      1.55311529	      2.25961959	    -12.15584409	     -3.40017327	      7.45882350	      0.00000000	      0.00000000	     -1.78408535	     -5.35745063	     -0.18052893
      4.72000000	     -5.56957037	      1.56820531	     -8.48500239	      0.04286267	      0.96202225	     -0.02119829	     24.17314828	     -7.71109587	     -2.16665895	    -44.58577101	      6.14368386	      0.00000000	      0.00000000	      1.20475093	      2.28967854	    -12.31586675	     -3.34150187	      7.70865928	      0.00000000	      0.00000000	     -1.73964267	     -5.20035324	     -0.44944197
      4.73000000	     -5.78561054	      0.91852596	     -8.62500645	      0.04174772	      0.96185284	     -0.02122920	     24.53400379	     -6.90447610	     -2.74427070	    -42.34598096	      5.93417744	      0.00000000	      0.00000000	      0.89615464	      1.64198571	    -12.49821537	     -3.32686028	      8.07098815	      0.00000000	      0.00000000	     -1.66116003	     -4.37873491	     -0.83670697
      4.74000000	     -5.85687208	      0.76932321	     -8.79005365	      0.04053583	      0.96161917	     -0.02125527	     24.89147577	     -6.64073749	     -3.14615089	    -40.17154877	      5.75948983	      0.00000000	      0.00000000	      0.50733028	      1.55207109	    -12.53418801	     -3.31740428	      8.37764045	      0.00000000	      0.00000000	     -1.68647148	     -4.15272783	     -1.20734061
      4.75000000	     -5.95584639	      0.93996103	     -9.09166087	      0.03936273	      0.96108616	     -0.02120861	     25.43517252	     -6.66370033	     -3.37010035	    -38.16631431	      5.86289358	      0.00000000	      0.00000000	      0.15839270	      1.81560625	    -12.60270828	     -3.25230974	      8.59033874	      0.00000000	      0.00000000	     -1.60287649	     -4.25863313	     -1.43802294
      4.76000000	     -6.11725096	      1.00685969	     -9.32770921	      0.03823858	      0.96052987	     -0.02094512	     25.89272943	     -6.54419673	     -3.63332427	    -35.93371272	      5.79294736	      0.00000000	      0.00000000	     -0.16634857	      1.94688166	    -12.68328617	     -3.11858522	      8.79181315	      0.00000000	      0.00000000	     -1.46204255	     -4.25381700	     -1.73188955
      4.77000000	     -6.34983288	      0.47867745	     -9.43618736	      0.03724338	      0.96019845	     -0.02045787	     25.99070877	     -5.81745925	     -4.21790604	    -33.13199476	      4.98370876	      0.00000000	      0.00000000	     -0.48850915	      1.39434838	    -12.74132083	     -3.03737482	      8.92072773	      0.00000000	      0.00000000	     -1.34803439	     -3.58902668	     -2.12786524
      4.78000000	     -6.46765895	      0.68084885	     -9.69979558	      0.03612613	      0.95948911	     -0.01988752	     26.38576559	     -5.77883403	     -4.38345035	    -30.88302227	      5.13795271	      0.00000000	      0.00000000	     -0.81635800	      1.65254118	    -12.79787195	     -2.97633884	      9.17848621	      0.00000000	      0.00000000	     -1.23510557	     -3.76117900	     -2.35043055
      4.79000000	     -6.61273145	      0.22839968	     -9.79889860	      0.03522692	      0.95915684	     -0.01902646	     26.27733360	     -5.06769586	     -4.78990434	    -27.90148814	      4.35553996	      0.00000000	      0.00000000	     -1.22194785	      1.17252036	    -12.91124027	     -2.92807694	      9.37800050	      0.00000000	      0.00000000	     -1.19776782	     -3.22733994	     -2.76709367
      4.80000000	     -6.75905288	      0.47033095	    -10.08817026	      0.03417310	      0.95828911	     -0.01826116	     26.62665626	     -5.00841287	     -4.91949467	    -25.57089227	      4.56195674	      0.00000000	      0.00000000	     -1.51480059	      1.45306150	    -12.93344166	     -2.87106623	      9.58983476	      0.00000000	      0.00000000	     -1.04154063	     -3.42923131	     -2.87635633
